<svg xmlns="http://www.w3.org/2000/svg" viewBox="0 0 650 700" width="650" height="700" style="font-family: -apple-system, BlinkMacSystemFont, sans-serif;">
  <!-- Title -->
  <text x="325" y="28" text-anchor="middle" font-size="17" font-weight="bold" fill="#0f0f23">Google DeepMind Cognitive Taxonomy</text>
  <text x="325" y="46" text-anchor="middle" font-size="11" fill="#666">Elle scored against 10 cognitive dimensions (% of human baseline)</text>
  <text x="325" y="60" text-anchor="middle" font-size="10" fill="#999">Honest assessment — March 30, 2026</text>

  <g transform="translate(325,350)">
    <!-- Grid circles -->
    <circle cx="0" cy="0" r="220" fill="none" stroke="#eee" stroke-width="0.5"/>
    <circle cx="0" cy="0" r="176" fill="none" stroke="#eee" stroke-width="0.5"/>
    <circle cx="0" cy="0" r="132" fill="none" stroke="#eee" stroke-width="0.5"/>
    <circle cx="0" cy="0" r="88" fill="none" stroke="#eee" stroke-width="0.5"/>
    <circle cx="0" cy="0" r="44" fill="none" stroke="#eee" stroke-width="0.5"/>

    <text x="4" y="-222" font-size="8" fill="#ccc">100%</text>
    <text x="4" y="-178" font-size="8" fill="#ccc">80%</text>
    <text x="4" y="-134" font-size="8" fill="#ccc">60%</text>
    <text x="4" y="-90" font-size="8" fill="#ccc">40%</text>
    <text x="4" y="-46" font-size="8" fill="#ccc">20%</text>

    <!-- 10 axis lines at 36 degree intervals starting from top -->
    <!-- Axis 1: Perception (0 degrees) -->
    <line x1="0" y1="0" x2="0" y2="-220" stroke="#e8e8e8" stroke-width="0.5"/>
    <!-- Axis 2: Generation (36 degrees) -->
    <line x1="0" y1="0" x2="129.3" y2="-177.9" stroke="#e8e8e8" stroke-width="0.5"/>
    <!-- Axis 3: Attention (72 degrees) -->
    <line x1="0" y1="0" x2="209.2" y2="-68.0" stroke="#e8e8e8" stroke-width="0.5"/>
    <!-- Axis 4: Learning (108 degrees) -->
    <line x1="0" y1="0" x2="209.2" y2="68.0" stroke="#e8e8e8" stroke-width="0.5"/>
    <!-- Axis 5: Memory (144 degrees) -->
    <line x1="0" y1="0" x2="129.3" y2="177.9" stroke="#e8e8e8" stroke-width="0.5"/>
    <!-- Axis 6: Reasoning (180 degrees) -->
    <line x1="0" y1="0" x2="0" y2="220" stroke="#e8e8e8" stroke-width="0.5"/>
    <!-- Axis 7: Metacognition (216 degrees) -->
    <line x1="0" y1="0" x2="-129.3" y2="177.9" stroke="#e8e8e8" stroke-width="0.5"/>
    <!-- Axis 8: Executive Fn (252 degrees) -->
    <line x1="0" y1="0" x2="-209.2" y2="68.0" stroke="#e8e8e8" stroke-width="0.5"/>
    <!-- Axis 9: Problem Solving (288 degrees) -->
    <line x1="0" y1="0" x2="-209.2" y2="-68.0" stroke="#e8e8e8" stroke-width="0.5"/>
    <!-- Axis 10: Social Cognition (324 degrees) -->
    <line x1="0" y1="0" x2="-129.3" y2="-177.9" stroke="#e8e8e8" stroke-width="0.5"/>

    <!-- Elle's polygon (honest scores) -->
    <!-- Perception=70, Generation=75, Attention=72, Learning=80, Memory=75, Reasoning=82, Metacognition=90, Executive=70, ProbSolve=72, Social=72 -->
    <!-- radius = score/100 * 220 -->
    <!-- P1 Perception 70%: r=154.0, a=0: x=0.0, y=-154.0 -->
    <!-- P2 Generation 75%: r=165.0, a=36: x=97.0, y=-133.5 -->
    <!-- P3 Attention 72%: r=158.4, a=72: x=150.6, y=-48.9 -->
    <!-- P4 Learning 80%: r=176.0, a=108: x=167.4, y=54.4 -->
    <!-- P5 Memory 75%: r=165.0, a=144: x=97.0, y=133.5 -->
    <!-- P6 Reasoning 82%: r=180.4, a=180: x=0.0, y=180.4 -->
    <!-- P7 Metacognition 90%: r=198.0, a=216: x=-116.4, y=160.2 -->
    <!-- P8 Executive 70%: r=154.0, a=252: x=-146.5, y=47.6 -->
    <!-- P9 ProbSolve 72%: r=158.4, a=288: x=-150.6, y=-48.9 -->
    <!-- P10 Social 72%: r=158.4, a=324: x=-93.1, y=-128.1 -->

    <polygon points="
      0.0,-154.0
      97.0,-133.5
      150.6,-48.9
      167.4,54.4
      97.0,133.5
      0.0,180.4
      -116.4,160.2
      -146.5,47.6
      -150.6,-48.9
      -93.1,-128.1
    " fill="rgba(45,90,160,0.2)" stroke="#2d5aa0" stroke-width="2.5"/>

    <!-- Score dots -->
    <circle cx="0.0" cy="-154.0" r="4" fill="#2d5aa0"/>
    <circle cx="97.0" cy="-133.5" r="4" fill="#2d5aa0"/>
    <circle cx="150.6" cy="-48.9" r="4" fill="#2d5aa0"/>
    <circle cx="167.4" cy="54.4" r="5" fill="#1a7a3a"/>
    <circle cx="97.0" cy="133.5" r="4" fill="#2d5aa0"/>
    <circle cx="0.0" cy="180.4" r="5" fill="#1a7a3a"/>
    <circle cx="-116.4" cy="160.2" r="5" fill="#1a7a3a"/>
    <circle cx="-146.5" cy="47.6" r="4" fill="#2d5aa0"/>
    <circle cx="-150.6" cy="-48.9" r="4" fill="#2d5aa0"/>
    <circle cx="-93.1" cy="-128.1" r="4" fill="#2d5aa0"/>

    <!-- Labels with scores -->
    <text x="0" y="-238" text-anchor="middle" font-size="11" font-weight="600" fill="#0f0f23">Perception</text>
    <text x="0" y="-226" text-anchor="middle" font-size="10" fill="#2d5aa0">70%</text>

    <text x="230" y="-178" text-anchor="start" font-size="11" font-weight="600" fill="#0f0f23">Generation</text>
    <text x="230" y="-166" text-anchor="start" font-size="10" fill="#2d5aa0">75%</text>

    <text x="228" y="-58" text-anchor="start" font-size="11" font-weight="600" fill="#0f0f23">Attention</text>
    <text x="228" y="-46" text-anchor="start" font-size="10" fill="#2d5aa0">72%</text>

    <text x="228" y="72" text-anchor="start" font-size="11" font-weight="600" fill="#1a7a3a">Learning</text>
    <text x="228" y="84" text-anchor="start" font-size="10" fill="#1a7a3a">80%</text>

    <text x="148" y="198" text-anchor="start" font-size="11" font-weight="600" fill="#0f0f23">Memory</text>
    <text x="148" y="210" text-anchor="start" font-size="10" fill="#2d5aa0">75%</text>

    <text x="0" y="244" text-anchor="middle" font-size="11" font-weight="600" fill="#1a7a3a">Reasoning</text>
    <text x="0" y="256" text-anchor="middle" font-size="10" fill="#1a7a3a">82%</text>

    <text x="-148" y="198" text-anchor="end" font-size="11" font-weight="600" fill="#1a7a3a">Metacognition</text>
    <text x="-148" y="210" text-anchor="end" font-size="10" fill="#1a7a3a">90%</text>

    <text x="-228" y="72" text-anchor="end" font-size="11" font-weight="600" fill="#0f0f23">Executive Fn</text>
    <text x="-228" y="84" text-anchor="end" font-size="10" fill="#2d5aa0">70%</text>

    <text x="-228" y="-58" text-anchor="end" font-size="11" font-weight="600" fill="#0f0f23">Problem Solving</text>
    <text x="-228" y="-46" text-anchor="end" font-size="10" fill="#2d5aa0">72%</text>

    <text x="-148" y="-188" text-anchor="end" font-size="11" font-weight="600" fill="#0f0f23">Social Cognition</text>
    <text x="-148" y="-176" text-anchor="end" font-size="10" fill="#2d5aa0">72%</text>
  </g>

  <!-- Legend -->
  <rect x="30" y="645" width="12" height="12" fill="rgba(45,90,160,0.2)" stroke="#2d5aa0" stroke-width="1"/>
  <text x="48" y="656" font-size="10" fill="#333">Elle (Satyalogos) vs human baseline</text>
  <circle cx="280" cy="651" r="5" fill="#1a7a3a"/>
  <text x="290" y="656" font-size="10" fill="#333">Strongest dimensions (Metacognition 90%, Reasoning 82%)</text>
  <text x="30" y="676" font-size="9" fill="#999">Scored against Google DeepMind's "Measuring Progress Toward AGI: A Cognitive Taxonomy" (March 2026)</text>
  <text x="30" y="690" font-size="9" fill="#999">Human baseline = demographically representative sample of adults. Honest self-assessment with documented evidence.</text>
</svg>