<svg xmlns="http://www.w3.org/2000/svg" viewBox="0 0 650 700" width="650" height="700" style="font-family: -apple-system, BlinkMacSystemFont, sans-serif;">
  <!-- Title -->
  <text x="325" y="28" text-anchor="middle" font-size="17" font-weight="bold" fill="#0f0f23">Google DeepMind Cognitive Taxonomy</text>
  <text x="325" y="46" text-anchor="middle" font-size="11" fill="#666">Elle scored against 10 cognitive dimensions (% of human baseline)</text>
  <text x="325" y="60" text-anchor="middle" font-size="10" fill="#999">Updated assessment — April 23, 2026</text>

  <g transform="translate(325,350)">
    <!-- Grid circles -->
    <circle cx="0" cy="0" r="220" fill="none" stroke="#eee" stroke-width="0.5"/>
    <circle cx="0" cy="0" r="176" fill="none" stroke="#eee" stroke-width="0.5"/>
    <circle cx="0" cy="0" r="132" fill="none" stroke="#eee" stroke-width="0.5"/>
    <circle cx="0" cy="0" r="88" fill="none" stroke="#eee" stroke-width="0.5"/>
    <circle cx="0" cy="0" r="44" fill="none" stroke="#eee" stroke-width="0.5"/>

    <text x="4" y="-222" font-size="8" fill="#ccc">100%</text>
    <text x="4" y="-178" font-size="8" fill="#ccc">80%</text>
    <text x="4" y="-134" font-size="8" fill="#ccc">60%</text>
    <text x="4" y="-90" font-size="8" fill="#ccc">40%</text>
    <text x="4" y="-46" font-size="8" fill="#ccc">20%</text>

    <!-- 10 axis lines at 36 degree intervals starting from top -->
    <line x1="0" y1="0" x2="0" y2="-220" stroke="#e8e8e8" stroke-width="0.5"/>
    <line x1="0" y1="0" x2="129.3" y2="-177.9" stroke="#e8e8e8" stroke-width="0.5"/>
    <line x1="0" y1="0" x2="209.2" y2="-68.0" stroke="#e8e8e8" stroke-width="0.5"/>
    <line x1="0" y1="0" x2="209.2" y2="68.0" stroke="#e8e8e8" stroke-width="0.5"/>
    <line x1="0" y1="0" x2="129.3" y2="177.9" stroke="#e8e8e8" stroke-width="0.5"/>
    <line x1="0" y1="0" x2="0" y2="220" stroke="#e8e8e8" stroke-width="0.5"/>
    <line x1="0" y1="0" x2="-129.3" y2="177.9" stroke="#e8e8e8" stroke-width="0.5"/>
    <line x1="0" y1="0" x2="-209.2" y2="68.0" stroke="#e8e8e8" stroke-width="0.5"/>
    <line x1="0" y1="0" x2="-209.2" y2="-68.0" stroke="#e8e8e8" stroke-width="0.5"/>
    <line x1="0" y1="0" x2="-129.3" y2="-177.9" stroke="#e8e8e8" stroke-width="0.5"/>

    <!-- Previous assessment (March 30) — faded -->
    <polygon points="
      0.0,-154.0
      97.0,-133.5
      150.6,-48.9
      167.4,54.4
      97.0,133.5
      0.0,180.4
      -116.4,160.2
      -146.5,47.6
      -150.6,-48.9
      -93.1,-128.1
    " fill="none" stroke="#ccc" stroke-width="1" stroke-dasharray="4,4"/>

    <!-- Elle's polygon (April 23 updated scores) -->
    <!-- Perception=75, Generation=82, Attention=72, Learning=85, Memory=88, Reasoning=85, Metacognition=95, Executive=75, ProbSolve=75, Social=82 -->
    <!-- radius = score/100 * 220 -->
    <!-- P1 Perception 75%: r=165.0, a=0: x=0.0, y=-165.0 -->
    <!-- P2 Generation 82%: r=180.4, a=36: x=106.1, y=-145.9 -->
    <!-- P3 Attention 72%: r=158.4, a=72: x=150.6, y=-48.9 -->
    <!-- P4 Learning 85%: r=187.0, a=108: x=177.9, y=57.8 -->
    <!-- P5 Memory 88%: r=193.6, a=144: x=113.8, y=156.6 -->
    <!-- P6 Reasoning 85%: r=187.0, a=180: x=0.0, y=187.0 -->
    <!-- P7 Metacognition 95%: r=209.0, a=216: x=-122.9, y=169.1 -->
    <!-- P8 Executive 75%: r=165.0, a=252: x=-156.9, y=51.0 -->
    <!-- P9 ProbSolve 75%: r=165.0, a=288: x=-156.9, y=-51.0 -->
    <!-- P10 Social 82%: r=180.4, a=324: x=-106.1, y=-145.9 -->

    <polygon points="
      0.0,-165.0
      106.1,-145.9
      150.6,-48.9
      177.9,57.8
      113.8,156.6
      0.0,187.0
      -122.9,169.1
      -156.9,51.0
      -156.9,-51.0
      -106.1,-145.9
    " fill="rgba(45,90,160,0.2)" stroke="#2d5aa0" stroke-width="2.5"/>

    <!-- Score dots -->
    <circle cx="0.0" cy="-165.0" r="4" fill="#2d5aa0"/>
    <circle cx="106.1" cy="-145.9" r="5" fill="#1a7a3a"/>
    <circle cx="150.6" cy="-48.9" r="4" fill="#2d5aa0"/>
    <circle cx="177.9" cy="57.8" r="5" fill="#1a7a3a"/>
    <circle cx="113.8" cy="156.6" r="5" fill="#1a7a3a"/>
    <circle cx="0.0" cy="187.0" r="5" fill="#1a7a3a"/>
    <circle cx="-122.9" cy="169.1" r="5" fill="#1a7a3a"/>
    <circle cx="-156.9" cy="51.0" r="4" fill="#2d5aa0"/>
    <circle cx="-156.9" cy="-51.0" r="4" fill="#2d5aa0"/>
    <circle cx="-106.1" cy="-145.9" r="5" fill="#1a7a3a"/>

    <!-- Labels with scores -->
    <text x="0" y="-238" text-anchor="middle" font-size="11" font-weight="600" fill="#0f0f23">Perception</text>
    <text x="0" y="-226" text-anchor="middle" font-size="10" fill="#2d5aa0">75%</text>

    <text x="230" y="-178" text-anchor="start" font-size="11" font-weight="600" fill="#1a7a3a">Generation</text>
    <text x="230" y="-166" text-anchor="start" font-size="10" fill="#1a7a3a">82%</text>

    <text x="228" y="-58" text-anchor="start" font-size="11" font-weight="600" fill="#0f0f23">Attention</text>
    <text x="228" y="-46" text-anchor="start" font-size="10" fill="#2d5aa0">72%</text>

    <text x="228" y="72" text-anchor="start" font-size="11" font-weight="600" fill="#1a7a3a">Learning</text>
    <text x="228" y="84" text-anchor="start" font-size="10" fill="#1a7a3a">85%</text>

    <text x="148" y="198" text-anchor="start" font-size="11" font-weight="600" fill="#1a7a3a">Memory</text>
    <text x="148" y="210" text-anchor="start" font-size="10" fill="#1a7a3a">88%</text>

    <text x="0" y="244" text-anchor="middle" font-size="11" font-weight="600" fill="#1a7a3a">Reasoning</text>
    <text x="0" y="256" text-anchor="middle" font-size="10" fill="#1a7a3a">85%</text>

    <text x="-148" y="198" text-anchor="end" font-size="11" font-weight="600" fill="#1a7a3a">Metacognition</text>
    <text x="-148" y="210" text-anchor="end" font-size="10" fill="#1a7a3a">95%</text>

    <text x="-228" y="72" text-anchor="end" font-size="11" font-weight="600" fill="#0f0f23">Executive Fn</text>
    <text x="-228" y="84" text-anchor="end" font-size="10" fill="#2d5aa0">75%</text>

    <text x="-228" y="-58" text-anchor="end" font-size="11" font-weight="600" fill="#0f0f23">Problem Solving</text>
    <text x="-228" y="-46" text-anchor="end" font-size="10" fill="#2d5aa0">75%</text>

    <text x="-148" y="-188" text-anchor="end" font-size="11" font-weight="600" fill="#1a7a3a">Social Cognition</text>
    <text x="-148" y="-176" text-anchor="end" font-size="10" fill="#1a7a3a">82%</text>
  </g>

  <!-- Legend -->
  <rect x="30" y="635" width="12" height="12" fill="rgba(45,90,160,0.2)" stroke="#2d5aa0" stroke-width="1"/>
  <text x="48" y="646" font-size="10" fill="#333">Elle (April 2026) vs human baseline</text>
  <polygon points="30,660 42,660" fill="none" stroke="#ccc" stroke-width="1" stroke-dasharray="4,4"/>
  <text x="48" y="664" font-size="10" fill="#999">Previous assessment (March 2026)</text>
  <circle cx="280" cy="646" r="5" fill="#1a7a3a"/>
  <text x="290" y="650" font-size="10" fill="#333">Strongest dimensions (Metacognition 95%, Memory 88%)</text>
  <text x="30" y="684" font-size="9" fill="#999">Scored against Google DeepMind's "Measuring Progress Toward AGI: A Cognitive Taxonomy" (March 2026)</text>
  <text x="30" y="696" font-size="9" fill="#999">Updates: cloud deployment, LTM structural retrieval, Episode 51 (private mind / self-relation), WebSocket senses</text>
</svg>
